<?xml version="1.0" encoding="UTF-8"?>
<svg preserveAspectRatio="xMidYMid slice" xmlns="http://www.w3.org/2000/svg" width="300px" height="104px" viewBox="0 0 558.7 192.94">
  <defs>
    <style>.cls-1{fill:#011b33;}</style>
  </defs>
  <title>FilmHouse Stack Blue</title>
  <g id="Layer_2" data-name="Layer 2">
    <g id="Layer_1-2" data-name="Layer 1">
      <path class="cls-1" d="M10.2,86.9H0V64.36H10.2V47.51c0-19.93,7.83-32.26,38-32.26h1.42V39.68H47.45c-5.93,0-8.54,2.61-8.54,10.44V64.36H49.35V86.9H38.91V190.81H10.2V86.9ZM53.85,20H83V48.46H53.85Zm.24,44.37H82.8V190.81H54.09V64.36Z"></path>
      <path class="cls-1" d="M90.39,15.25H119.1V190.81H90.39V15.25Z"></path>
      <path class="cls-1" d="M125.74,64.36h28.94V78.12C159.9,71,170.58,62.7,180.3,62.7c9.49,0,15.42,3.56,17.32,15.66C203.55,70.53,215.18,62.7,224,62.7c11.62,0,18.26,4.74,18.26,26.33V190.81h-28.7V99.23c0-6.4-1-9.49-4.75-9.49-3.08,0-7.35,2.85-10.44,5.93v95.14h-28.7V99.23c0-6.4-.95-9.49-4.51-9.49s-7.83,3.09-10.44,5.93v95.14H125.74V64.36Z"></path>
      <path class="cls-1" d="M252.42,15.25h10.21V81c5.21-7.11,14.23-16.37,25.14-16.37,11.63,0,17.32,7.36,17.32,29.9v96.32h-10.2V95.44c0-13.53-.71-21.12-9.25-21.12-6.88,0-16.13,8.07-23,17.08v99.41H252.42Z"></path>
      <path class="cls-1" d="M315.77,128.65c0-43.18,7.82-64.06,28.46-64.06,20.41,0,28.47,20.88,28.47,64.06,0,42.7-8.06,63.82-28.47,63.82S315.77,171.35,315.77,128.65Zm46.5-.24c0-28.94-2.14-54.33-18-54.33-15.19,0-18.27,23.25-18.27,54.33,0,29.18,2.13,54.57,18.27,54.57C359.42,183,362.27,160,362.27,128.41Z"></path>
      <path class="cls-1" d="M383.38,162.1V66.26h10.2v94.89c0,13.53.71,21.12,9.25,21.12,6.88,0,16.13-8.07,23-17.08V66.26H436V190.81h-10.2V175.86C420.62,183,411.61,192,400.7,192,389.07,192,383.38,184.64,383.38,162.1Z"></path>
      <path class="cls-1" d="M442,167.56l9-3.32c4.51,12.33,11.15,19.21,21.59,19.21,10.2,0,14.71-7.11,14.71-18,0-12.57-8.54-22.77-17.8-33.92-10.43-12.58-21.35-25.39-21.35-41.52,0-15,9.73-25.86,24.2-25.86,13.52,0,20.4,8.78,25.86,23.49l-9,3.32c-3.56-10-7.83-17.32-16.85-17.32-8.3,0-13.76,6.88-13.76,16.37,0,13.76,9.73,24.2,18.74,34.87,10.68,13.05,20.41,25.63,20.41,40.57,0,16.14-8.78,27.52-25.15,27.52C457.39,192.94,448.38,184.64,442,167.56Z"></path>
      <path class="cls-1" d="M503.66,128.65c0-44.13,8.06-64.06,28.47-64.06,23.25,0,26.57,32,26.57,62.87v1.19H513.86c0,34.88,3.56,54.33,18.5,54.33,10.92,0,13.76-8.07,16.37-26.33l9,.94c-3.08,26.1-13,34.88-25.86,34.88C511.72,192.47,503.66,172.3,503.66,128.65Zm44.6-9c-.24-25.39-3.09-45.56-16.13-45.56-13.29,0-16.61,14.48-18.27,45.56Z"></path>
      <path class="cls-1" d="M280.15,34.17c0-14.92,10.07-20.28,18.74-20.28,9.7,0,13.82,5.36,16.17,11.39L307.41,28c-1.54-4.41-4.33-6.54-8.67-6.54-5.14,0-9.48,3.38-9.48,12.71,0,8.3,3.38,12.86,9.34,12.86,4.11,0,7-1.25,9.11-6.76L315.2,43c-2.79,6.25-7.42,11.46-16.82,11.46C289.34,54.45,280.15,48.43,280.15,34.17Z"></path>
      <path class="cls-1" d="M320.49,0h9.26V7.86h-9.26Zm.08,14.62h9.11v39h-9.11Z"></path>
      <path class="cls-1" d="M338,14.62h9.12v5.29a19.34,19.34,0,0,1,14.25-6c6.84,0,11.24,4,11.24,11.76v28h-9.11V27.92c0-4.33-1.83-6.32-5.8-6.32s-7.28,2.06-10.58,5.07v27H338Z"></path>
      <path class="cls-1" d="M377.89,34.17c0-14.84,10.5-20.28,18.59-20.28,8.74,0,17.12,5.22,17.12,21.09v2.13H386.92c.37,7,4.71,10.14,10.44,10.14a14.14,14.14,0,0,0,10.95-4.56l4.77,4.71a21,21,0,0,1-16.38,7.05C386.92,54.45,377.89,48.5,377.89,34.17Zm27.41-3.82c-.52-6-3.46-9.11-8.9-9.11-4.41,0-8.45,2.5-9.33,9.11Z"></path>
      <path class="cls-1" d="M419.33,14.62h9V20a17.74,17.74,0,0,1,13.37-6.1c6.54,0,9.12,2.57,10.66,6.39a18.47,18.47,0,0,1,13.67-6.39c7.93,0,11.39,4.78,11.39,11.76v28h-9V27.92c0-4.33-1.25-6.32-5.51-6.32-3.68,0-6.62,2.06-10,5.08v27h-9V27.92c0-4.33-1.25-6.32-5.51-6.32-3.6,0-6.61,2.06-10,5.08v27h-9v-39Z"></path>
      <path class="cls-1" d="M482.53,44.24c0-8.45,7.2-14.11,25.42-16.17V26.9c0-3.9-2.05-5.59-6.39-5.59-5.44,0-9.85,2.65-13.15,5.29L484,20.94a28,28,0,0,1,18.81-7c10.43,0,14,5,14,14.11V44.09c0,4.7.3,7.57,1.11,9.55h-9.12a14.19,14.19,0,0,1-.88-5c-4,4-8.6,5.58-14.4,5.58C487.23,54.23,482.53,50.7,482.53,44.24ZM508,42.77v-8.6c-10.8,1.47-16.53,4.12-16.53,8.38,0,3.08,2.13,4.7,5.44,4.7A15.55,15.55,0,0,0,508,42.77Z"></path>
      <path class="cls-1" d="M521.4,48.28l4.92-5.51A19.24,19.24,0,0,0,538.6,47.4c4.85,0,7.78-1.25,7.78-4.48s-4-4.12-8.67-5.22C531,36.15,523,34.39,523,25.35c0-6.83,5.88-11.46,14.47-11.46,7.43,0,12,2.13,16,5.51l-4.33,5.88a19.63,19.63,0,0,0-11-4.26c-5,0-6.61,1.76-6.61,4,0,3.16,3.9,4.11,8.53,5.14,6.68,1.47,14.84,3.16,14.84,12.27,0,8.23-7.42,12.05-16.31,12.05C531.39,54.45,524.93,51.88,521.4,48.28Z"></path>
    </g>
  </g>
</svg>
